<?xml version="1.0" encoding="UTF-8" standalone="no"?>
<!-- Created with Inkscape (http://www.inkscape.org/) -->

<svg
   xmlns:dc="http://purl.org/dc/elements/1.1/"
   xmlns:cc="http://creativecommons.org/ns#"
   xmlns:rdf="http://www.w3.org/1999/02/22-rdf-syntax-ns#"
   xmlns:svg="http://www.w3.org/2000/svg"
   xmlns="http://www.w3.org/2000/svg"
   xmlns:sodipodi="http://sodipodi.sourceforge.net/DTD/sodipodi-0.dtd"
   xmlns:inkscape="http://www.inkscape.org/namespaces/inkscape"
   width="320"
   height="320"
   viewBox="0 0 300.00002 299.99999"
   id="svg2"
   version="1.1"
   inkscape:version="0.92.2 (5c3e80d, 2017-08-06)"
   inkscape:export-xdpi="150"
   inkscape:export-ydpi="150"
   sodipodi:docname="logo-simple.svg">
  <defs
     id="defs4">
    <clipPath
       clipPathUnits="userSpaceOnUse"
       id="clipPath4181">
      <path
         style="color:#000000;clip-rule:nonzero;display:inline;overflow:visible;visibility:visible;opacity:1;isolation:auto;mix-blend-mode:normal;color-interpolation:sRGB;color-interpolation-filters:linearRGB;solid-color:#000000;solid-opacity:1;fill:#ff0033;fill-opacity:1;fill-rule:nonzero;stroke:none;stroke-width:2;stroke-linecap:square;stroke-linejoin:miter;stroke-miterlimit:4;stroke-dasharray:none;stroke-dashoffset:0;stroke-opacity:1;color-rendering:auto;image-rendering:auto;shape-rendering:auto;text-rendering:auto;enable-background:accumulate"
         d="M 164.71612,229.91286 297.69562,550.95378 643.00101,407.9236 510.02151,86.882686 Z m 98.18714,90.54636 246.84726,-102.24749 41.55628,100.32574 -246.84726,102.24749 z"
         id="path4183"
         inkscape:connector-curvature="0" />
    </clipPath>
    <clipPath
       clipPathUnits="userSpaceOnUse"
       id="clipPath1544">
      <path
         style="color:#000000;clip-rule:nonzero;display:inline;overflow:visible;visibility:visible;opacity:1;isolation:auto;mix-blend-mode:normal;color-interpolation:sRGB;color-interpolation-filters:linearRGB;solid-color:#000000;solid-opacity:1;fill:#ff0033;fill-opacity:1;fill-rule:nonzero;stroke:none;stroke-width:2;stroke-linecap:square;stroke-linejoin:miter;stroke-miterlimit:4;stroke-dasharray:none;stroke-dashoffset:0;stroke-opacity:1;color-rendering:auto;image-rendering:auto;shape-rendering:auto;text-rendering:auto;enable-background:accumulate"
         d="M 266.02056,327.9841 301.34305,413.26013 548.19042,311.0126 512.86793,225.73657 Z"
         id="path1546"
         inkscape:connector-curvature="0" />
    </clipPath>
  </defs>
  <sodipodi:namedview
     id="base"
     pagecolor="#ffffff"
     bordercolor="#666666"
     borderopacity="1.0"
     inkscape:pageopacity="0.0"
     inkscape:pageshadow="2"
     inkscape:zoom="1.4"
     inkscape:cx="143.53813"
     inkscape:cy="168.6727"
     inkscape:document-units="px"
     inkscape:current-layer="layer1"
     showgrid="false"
     fit-margin-top="0"
     fit-margin-left="0"
     fit-margin-right="0"
     fit-margin-bottom="0"
     inkscape:window-width="1366"
     inkscape:window-height="705"
     inkscape:window-x="-8"
     inkscape:window-y="-8"
     inkscape:window-maximized="1"
     showguides="false"
     inkscape:guide-bbox="true"
     inkscape:measure-start="368.195,239.402"
     inkscape:measure-end="366.433,213.9"
     units="px" />
  <metadata
     id="metadata7">
    <rdf:RDF>
      <cc:Work
         rdf:about="">
        <dc:format>image/svg+xml</dc:format>
        <dc:type
           rdf:resource="http://purl.org/dc/dcmitype/StillImage" />
        <dc:title></dc:title>
      </cc:Work>
    </rdf:RDF>
  </metadata>
  <g
     inkscape:label="Layer 1"
     inkscape:groupmode="layer"
     id="layer1"
     transform="translate(-127.36256,-297.68521)">
    <rect
       style="color:#000000;clip-rule:nonzero;display:inline;overflow:visible;visibility:visible;opacity:1;isolation:auto;mix-blend-mode:normal;color-interpolation:sRGB;color-interpolation-filters:linearRGB;solid-color:#000000;solid-opacity:1;fill:none;fill-opacity:1;fill-rule:nonzero;stroke:#5b417d;stroke-width:14.99999905;stroke-linecap:square;stroke-linejoin:miter;stroke-miterlimit:4;stroke-dasharray:none;stroke-dashoffset:0;stroke-opacity:1;color-rendering:auto;image-rendering:auto;shape-rendering:auto;text-rendering:auto;enable-background:accumulate"
       id="rect4142"
       width="154.67636"
       height="232.32487"
       x="329.04337"
       y="203.63509"
       transform="rotate(22.5,20.40464,59.430253)"
       clip-path="url(#clipPath4181)" />
    <g
       id="g6278"
       transform="matrix(0.23382207,0,0,0.23382207,220.57705,390.89941)"
       style="fill:#5b417d;fill-opacity:1">
      <path
         id="path6280"
         d="m 431.778,187.681 c -0.138,-0.463 -0.26,-0.927 -0.398,-1.39 -1.65,-5.519 -3.577,-10.974 -5.723,-16.363 -0.252,-0.618 -0.48,-1.252 -0.74,-1.87 -2.138,-5.202 -4.536,-10.323 -7.137,-15.371 -0.382,-0.732 -0.74,-1.479 -1.13,-2.203 -0.853,-1.601 -1.748,-3.178 -2.642,-4.755 L 438.792,95.364 388.94,45.512 338.023,70.564 c -0.935,-0.52 -1.87,-1.024 -2.812,-1.528 -0.732,-0.39 -1.471,-0.748 -2.203,-1.13 -5.04,-2.601 -10.161,-4.999 -15.371,-7.137 -0.618,-0.252 -1.244,-0.488 -1.87,-0.74 -5.381,-2.146 -10.835,-4.072 -16.355,-5.723 -0.463,-0.138 -0.943,-0.26 -1.406,-0.398 -0.211,-0.065 -0.423,-0.122 -0.634,-0.179 L 279.082,0 h -70.499 l -18.086,53.128 c -0.935,0.26 -1.87,0.528 -2.804,0.797 -0.471,0.138 -0.943,0.26 -1.406,0.398 -5.519,1.65 -10.965,3.577 -16.355,5.723 -0.618,0.252 -1.252,0.48 -1.87,0.74 -5.21,2.138 -10.331,4.536 -15.371,7.137 -0.732,0.374 -1.471,0.74 -2.195,1.122 -0.943,0.504 -1.886,1.016 -2.821,1.528 L 96.758,45.52 46.906,95.373 71.69,145.738 c -0.894,1.577 -1.788,3.146 -2.642,4.747 -0.39,0.732 -0.756,1.479 -1.138,2.219 -2.601,5.04 -4.999,10.161 -7.129,15.363 -0.252,0.618 -0.488,1.244 -0.74,1.87 -2.146,5.389 -4.072,10.844 -5.723,16.363 -0.138,0.463 -0.26,0.927 -0.398,1.39 -0.276,0.935 -0.536,1.878 -0.797,2.821 l -53.12,18.086 v 70.499 l 53.73,18.289 c 0.065,0.219 0.122,0.439 0.187,0.65 0.13,0.463 0.252,0.927 0.39,1.382 1.65,5.519 3.577,10.974 5.723,16.363 0.252,0.618 0.48,1.252 0.74,1.87 2.138,5.202 4.536,10.323 7.137,15.371 0.382,0.732 0.74,1.479 1.13,2.211 0.853,1.601 1.748,3.178 2.642,4.747 l -24.784,50.365 49.853,49.853 50.917,-25.052 c 0.935,0.52 1.87,1.024 2.812,1.528 0.732,0.39 1.471,0.748 2.211,1.13 5.04,2.601 10.161,4.999 15.371,7.137 0.618,0.252 1.244,0.488 1.87,0.74 5.389,2.146 10.844,4.072 16.363,5.723 0.463,0.138 0.927,0.26 1.39,0.398 0.219,0.065 0.431,0.122 0.65,0.187 l 18.289,53.73 h 70.499 l 18.086,-53.12 c 0.943,-0.26 1.878,-0.528 2.821,-0.797 0.463,-0.138 0.927,-0.26 1.39,-0.398 5.519,-1.65 10.974,-3.577 16.363,-5.723 0.618,-0.252 1.252,-0.48 1.87,-0.74 5.202,-2.138 10.323,-4.528 15.363,-7.129 0.74,-0.382 1.488,-0.748 2.219,-1.138 0.943,-0.504 1.878,-1.008 2.812,-1.528 l 50.917,25.052 49.853,-49.853 -24.784,-50.365 c 0.894,-1.577 1.788,-3.154 2.642,-4.755 0.39,-0.723 0.748,-1.463 1.122,-2.195 2.601,-5.048 4.999,-10.169 7.137,-15.371 0.252,-0.618 0.488,-1.244 0.74,-1.87 2.146,-5.389 4.072,-10.844 5.723,-16.363 0.138,-0.455 0.26,-0.927 0.39,-1.382 0.276,-0.935 0.545,-1.878 0.805,-2.821 l 53.12,-18.086 v -70.499 l -53.73,-18.289 c -0.082,-0.237 -0.139,-0.456 -0.204,-0.667 z M 271.344,379.832 c -0.122,0.024 -0.236,0.065 -0.358,0.089 -3.894,0.797 -7.877,1.349 -11.876,1.821 -0.699,0.081 -1.382,0.236 -2.081,0.309 -4.666,0.471 -9.389,0.715 -14.176,0.715 -4.787,0 -9.51,-0.244 -14.176,-0.715 -0.699,-0.073 -1.382,-0.228 -2.081,-0.309 -3.999,-0.463 -7.982,-1.016 -11.876,-1.821 -0.122,-0.024 -0.244,-0.065 -0.374,-0.089 -54.315,-11.291 -97.185,-54.161 -108.476,-108.476 -0.024,-0.122 -0.065,-0.244 -0.089,-0.374 -0.797,-3.894 -1.349,-7.868 -1.821,-11.876 -0.081,-0.699 -0.236,-1.382 -0.309,-2.081 -0.471,-4.666 -0.715,-9.389 -0.715,-14.176 0,-4.787 0.244,-9.51 0.715,-14.176 0.073,-0.699 0.228,-1.382 0.309,-2.081 0.463,-4.007 1.016,-7.982 1.821,-11.876 0.024,-0.122 0.065,-0.236 0.089,-0.358 11.291,-54.356 54.201,-97.25 108.557,-108.508 0.098,-0.016 0.187,-0.049 0.285,-0.073 3.926,-0.805 7.942,-1.366 11.973,-1.829 0.667,-0.073 1.317,-0.228 1.983,-0.293 4.666,-0.471 9.397,-0.715 14.184,-0.715 4.788,0 9.519,0.244 14.184,0.715 0.667,0.065 1.317,0.219 1.983,0.293 4.04,0.463 8.047,1.024 11.973,1.829 0.098,0.016 0.187,0.049 0.284,0.073 54.364,11.266 97.267,54.161 108.557,108.508 0.024,0.122 0.065,0.236 0.089,0.358 0.797,3.894 1.349,7.877 1.821,11.876 0.081,0.699 0.236,1.382 0.309,2.081 0.471,4.666 0.715,9.389 0.715,14.176 0,4.788 -0.244,9.51 -0.715,14.176 -0.073,0.699 -0.228,1.382 -0.309,2.081 -0.463,3.999 -1.016,7.982 -1.821,11.876 -0.024,0.122 -0.065,0.244 -0.089,0.374 -11.287,54.323 -54.166,97.194 -108.489,108.476 z"
         style="fill:#5b417d;fill-opacity:1"
         inkscape:connector-curvature="0" />
      <circle
         id="circle6282"
         r="44.018925"
         cy="242.849"
         cx="242.853"
         style="fill:#5b417d;fill-opacity:1" />
    </g>
    <g
       id="g6284"
       transform="matrix(0.23382207,0,0,0.23382207,196.28087,394.18406)" />
    <g
       id="g6286"
       transform="matrix(0.23382207,0,0,0.23382207,196.28087,394.18406)" />
    <g
       id="g6288"
       transform="matrix(0.23382207,0,0,0.23382207,196.28087,394.18406)" />
    <g
       id="g6290"
       transform="matrix(0.23382207,0,0,0.23382207,196.28087,394.18406)" />
    <g
       id="g6292"
       transform="matrix(0.23382207,0,0,0.23382207,196.28087,394.18406)" />
    <g
       id="g6294"
       transform="matrix(0.23382207,0,0,0.23382207,196.28087,394.18406)" />
    <g
       id="g6296"
       transform="matrix(0.23382207,0,0,0.23382207,196.28087,394.18406)" />
    <g
       id="g6298"
       transform="matrix(0.23382207,0,0,0.23382207,196.28087,394.18406)" />
    <g
       id="g6300"
       transform="matrix(0.23382207,0,0,0.23382207,196.28087,394.18406)" />
    <g
       id="g6302"
       transform="matrix(0.23382207,0,0,0.23382207,196.28087,394.18406)" />
    <g
       id="g6304"
       transform="matrix(0.23382207,0,0,0.23382207,196.28087,394.18406)" />
    <g
       id="g6306"
       transform="matrix(0.23382207,0,0,0.23382207,196.28087,394.18406)" />
    <g
       id="g6308"
       transform="matrix(0.23382207,0,0,0.23382207,196.28087,394.18406)" />
    <g
       id="g6310"
       transform="matrix(0.23382207,0,0,0.23382207,196.28087,394.18406)" />
    <g
       id="g6312"
       transform="matrix(0.23382207,0,0,0.23382207,196.28087,394.18406)" />
    <rect
       clip-path="url(#clipPath1544)"
       transform="rotate(22.5,20.40464,59.430253)"
       y="203.63509"
       x="329.04337"
       height="232.32487"
       width="154.67636"
       id="rect1518"
       style="color:#000000;clip-rule:nonzero;display:inline;overflow:visible;visibility:visible;opacity:1;isolation:auto;mix-blend-mode:normal;color-interpolation:sRGB;color-interpolation-filters:linearRGB;solid-color:#000000;solid-opacity:1;fill:none;fill-opacity:1;fill-rule:nonzero;stroke:#000014;stroke-width:14.99999905;stroke-linecap:square;stroke-linejoin:miter;stroke-miterlimit:4;stroke-dasharray:none;stroke-dashoffset:0;stroke-opacity:1;color-rendering:auto;image-rendering:auto;shape-rendering:auto;text-rendering:auto;enable-background:accumulate" />
  </g>
</svg>
