<?xml version="1.0" encoding="UTF-8" standalone="no"?>
<!-- Created with Inkscape (http://www.inkscape.org/) -->

<svg
   xmlns:dc="http://purl.org/dc/elements/1.1/"
   xmlns:cc="http://creativecommons.org/ns#"
   xmlns:rdf="http://www.w3.org/1999/02/22-rdf-syntax-ns#"
   xmlns:svg="http://www.w3.org/2000/svg"
   xmlns="http://www.w3.org/2000/svg"
   xmlns:sodipodi="http://sodipodi.sourceforge.net/DTD/sodipodi-0.dtd"
   xmlns:inkscape="http://www.inkscape.org/namespaces/inkscape"
   width="191.11874mm"
   height="82.812668mm"
   viewBox="0 0 677.1924 293.43071"
   id="svg2"
   version="1.1"
   inkscape:version="0.91 r13725"
   inkscape:export-xdpi="150"
   inkscape:export-ydpi="150"
   sodipodi:docname="ygo-fabrica.svg">
  <defs
     id="defs4">
    <clipPath
       clipPathUnits="userSpaceOnUse"
       id="clipPath4181">
      <path
         style="color:#000000;clip-rule:nonzero;display:inline;overflow:visible;visibility:visible;opacity:1;isolation:auto;mix-blend-mode:normal;color-interpolation:sRGB;color-interpolation-filters:linearRGB;solid-color:#000000;solid-opacity:1;fill:#ff0033;fill-opacity:1;fill-rule:nonzero;stroke:none;stroke-width:2;stroke-linecap:square;stroke-linejoin:miter;stroke-miterlimit:4;stroke-dasharray:none;stroke-dashoffset:0;stroke-opacity:1;color-rendering:auto;image-rendering:auto;shape-rendering:auto;text-rendering:auto;enable-background:accumulate"
         d="M 164.71612,229.91286 297.69562,550.95378 643.00101,407.9236 510.02151,86.882686 164.71612,229.91286 Z M 262.90326,320.45922 509.75052,218.21173 551.3068,318.53747 304.45954,420.78496 262.90326,320.45922 Z"
         id="path4183"
         inkscape:connector-curvature="0" />
    </clipPath>
  </defs>
  <sodipodi:namedview
     id="base"
     pagecolor="#ffffff"
     bordercolor="#666666"
     borderopacity="1.0"
     inkscape:pageopacity="0.0"
     inkscape:pageshadow="2"
     inkscape:zoom="0.98994949"
     inkscape:cx="249.21232"
     inkscape:cy="182.46096"
     inkscape:document-units="px"
     inkscape:current-layer="layer1"
     showgrid="false"
     fit-margin-top="0"
     fit-margin-left="0"
     fit-margin-right="0"
     fit-margin-bottom="0"
     inkscape:window-width="1311"
     inkscape:window-height="744"
     inkscape:window-x="55"
     inkscape:window-y="24"
     inkscape:window-maximized="1"
     showguides="true"
     inkscape:guide-bbox="true" />
  <metadata
     id="metadata7">
    <rdf:RDF>
      <cc:Work
         rdf:about="">
        <dc:format>image/svg+xml</dc:format>
        <dc:type
           rdf:resource="http://purl.org/dc/dcmitype/StillImage" />
        <dc:title />
      </cc:Work>
    </rdf:RDF>
  </metadata>
  <g
     inkscape:label="Layer 1"
     inkscape:groupmode="layer"
     id="layer1"
     transform="translate(-23.787758,-304.25451)">
    <rect
       style="color:#000000;clip-rule:nonzero;display:inline;overflow:visible;visibility:visible;opacity:1;isolation:auto;mix-blend-mode:normal;color-interpolation:sRGB;color-interpolation-filters:linearRGB;solid-color:#000000;solid-opacity:1;fill:none;fill-opacity:1;fill-rule:nonzero;stroke:#5b417d;stroke-width:14.99999905;stroke-linecap:square;stroke-linejoin:miter;stroke-miterlimit:4;stroke-dasharray:none;stroke-dashoffset:0;stroke-opacity:1;color-rendering:auto;image-rendering:auto;shape-rendering:auto;text-rendering:auto;enable-background:accumulate"
       id="rect4142"
       width="154.67636"
       height="232.32487"
       x="329.04337"
       y="203.63509"
       transform="matrix(0.92387953,0.38268343,-0.38268343,0.92387953,0,0)"
       clip-path="url(#clipPath4181)" />
    <g
       style="font-style:normal;font-weight:normal;font-size:40px;line-height:125%;font-family:sans-serif;letter-spacing:0px;word-spacing:0px;fill:#000000;fill-opacity:1;stroke:none;stroke-width:1px;stroke-linecap:butt;stroke-linejoin:miter;stroke-opacity:1"
       id="text4136"
       transform="translate(-14,0)">
      <path
         d="m 67.87809,495.46448 0,-40.89356 -30.090332,-48.46191 15.258789,0 18.737793,30.33447 q 0.671387,1.15967 1.647949,3.05176 1.037598,1.89209 2.075195,4.08935 0.854493,-2.13623 1.77002,-4.02832 0.976562,-1.89209 2.01416,-3.479 l 19.226074,-29.96826 14.526372,0 -30.761723,48.46191 0,40.89356 -14.404297,0 z"
         style="font-style:normal;font-variant:normal;font-weight:normal;font-stretch:normal;font-size:125px;font-family:'Futura Md BT';-inkscape-font-specification:'Futura Md BT';letter-spacing:0px;fill:#000000;fill-opacity:1"
         id="path5140"
         inkscape:connector-curvature="0" />
      <path
         d="m 168.37028,449.68811 35.40039,0 q 0,0.91553 0.061,2.56348 0.18311,4.33349 0.18311,5.85937 0,18.85987 -10.80322,29.29688 -10.80323,10.43701 -30.45655,10.43701 -10.98633,0 -19.59228,-3.23486 -8.60596,-3.23487 -15.07569,-9.76563 -6.34765,-6.46973 -9.76562,-15.19775 -3.35693,-8.72803 -3.35693,-18.67676 0,-10.13184 3.41796,-18.67676 3.47901,-8.54492 10.25391,-15.07568 6.53076,-6.40869 15.31982,-9.76563 8.78907,-3.35693 18.79883,-3.35693 10.55909,0 18.85987,3.84521 8.36181,3.84522 14.89257,11.77979 l -10.62011,7.9956 q -4.5166,-5.24902 -10.19287,-7.8125 -5.67627,-2.56347 -12.69532,-2.56347 -14.52636,0 -23.74267,9.33838 -9.15528,9.27734 -9.15528,24.16992 0,15.13672 9.15528,24.59717 9.21631,9.39941 23.86474,9.39941 12.45118,0 19.59229,-5.79834 7.14111,-5.79834 7.14111,-15.8081 l 0,-1.28174 -21.48437,0 0,-12.26807 z"
         style="font-style:normal;font-variant:normal;font-weight:normal;font-stretch:normal;font-size:125px;font-family:'Futura Md BT';-inkscape-font-specification:'Futura Md BT';letter-spacing:0px;fill:#000000;fill-opacity:1"
         id="path5142"
         inkscape:connector-curvature="0" />
      <path
         d="m 299.68961,450.96985 q 0,-6.7749 -2.50244,-12.87842 -2.4414,-6.10351 -7.08008,-10.86426 -4.5166,-4.6997 -10.49804,-7.20215 -5.92041,-2.56347 -12.51221,-2.56347 -6.5918,0 -12.57324,2.50244 -5.92041,2.50244 -10.55908,7.26318 -4.63868,4.69971 -7.08008,10.80323 -2.44141,6.10351 -2.44141,12.93945 0,6.7749 2.44141,12.81738 2.4414,6.04248 7.08008,10.80322 4.63867,4.76075 10.55908,7.26319 5.92041,2.50244 12.57324,2.50244 6.53076,0 12.39014,-2.50244 5.92041,-2.50244 10.62011,-7.26319 4.63868,-4.76074 7.08008,-10.80322 2.50244,-6.10351 2.50244,-12.81738 z m 15.13672,0 q 0,9.52148 -3.60107,18.00537 -3.54004,8.48389 -10.37598,15.13672 -6.89697,6.65283 -15.56396,10.19287 -8.667,3.54004 -18.18848,3.54004 -9.64355,0 -18.43262,-3.54004 -8.72802,-3.60107 -15.44189,-10.19287 -6.83594,-6.65283 -10.37598,-15.07569 -3.54004,-8.42285 -3.54004,-18.0664 0,-9.58252 3.54004,-18.06641 3.54004,-8.48388 10.37598,-15.19775 6.83594,-6.65283 15.50293,-10.13184 8.66699,-3.479 18.37158,-3.479 9.64355,0 18.24951,3.479 8.66699,3.47901 15.50293,10.13184 6.83594,6.7749 10.37598,15.31982 3.60107,8.48389 3.60107,17.94434 z"
         style="font-style:normal;font-variant:normal;font-weight:normal;font-stretch:normal;font-size:125px;font-family:'Futura Md BT';-inkscape-font-specification:'Futura Md BT';letter-spacing:0px;fill:#5b417d;fill-opacity:1"
         id="path5144"
         inkscape:connector-curvature="0" />
      <path
         d="m 331.611,495.46448 0,-89.35547 49.86572,0 0,12.3291 -35.33935,0 0,22.27783 35.33935,0 0,12.75635 -35.33935,0 0,41.99219 -14.52637,0 z"
         style="font-style:normal;font-variant:normal;font-weight:normal;font-stretch:normal;font-size:125px;font-family:'Futura Md BT';-inkscape-font-specification:'Futura Md BT';letter-spacing:0px;fill:#000000;fill-opacity:1"
         id="path5146"
         inkscape:connector-curvature="0" />
      <path
         d="m 400.32194,467.38831 19.92187,0 -7.32422,-16.3086 q -0.63476,-1.5625 -1.31836,-3.56445 -0.68359,-2.05078 -1.36718,-4.54102 -0.58594,2.34375 -1.26953,4.39453 -0.63477,2.00196 -1.31836,3.71094 l -7.32422,16.3086 z m 32.1289,28.07617 -8.10546,-18.40821 -28.32032,0 -8.30078,18.40821 -12.20703,0 34.61914,-74.31641 34.57031,74.31641 -12.25586,0 z"
         style="font-size:100px;letter-spacing:0px"
         id="path5148"
         inkscape:connector-curvature="0" />
      <path
         d="m 462.82194,454.15588 4.44336,0 q 8.30078,0 11.71875,-2.24609 3.46679,-2.29492 3.46679,-7.66602 0,-5.85937 -3.17382,-8.20312 -3.17383,-2.39258 -12.01172,-2.39258 l -4.44336,0 0,20.50781 z m 0,31.5918 4.0039,0 q 6.10352,0 9.13086,-0.48828 3.02735,-0.48828 4.78516,-1.70898 2.14844,-1.41602 3.32031,-3.8086 1.17188,-2.39258 1.17188,-5.27344 0,-3.41796 -1.41602,-5.95703 -1.41601,-2.53906 -4.05273,-3.95508 -1.66016,-0.83007 -3.8086,-1.2207 -2.09961,-0.39062 -5.61523,-0.39062 l -3.51563,0 -4.0039,0 0,22.80273 z m -11.37696,9.7168 0,-71.48438 18.01758,0 q 7.71485,0 11.37696,0.83008 3.71093,0.83008 6.29882,2.73438 3.32032,2.4414 5.12696,6.39648 1.85547,3.95508 1.85547,8.74023 0,5.7129 -2.63672,9.57032 -2.63672,3.80859 -7.66602,5.32226 6.25,0.97657 9.81445,5.71289 3.61329,4.6875 3.61329,11.86524 0,4.3457 -1.51368,8.25195 -1.51367,3.90625 -4.29687,6.64063 -2.92969,2.97851 -7.27539,4.19921 -4.3457,1.22071 -14.59961,1.22071 l -18.11524,0 z"
         style="font-size:100px;letter-spacing:0px"
         id="path5150"
         inkscape:connector-curvature="0" />
      <path
         d="m 518.68327,454.44885 2.09961,0 q 9.22851,0 12.25585,-2.14843 3.02735,-2.14844 3.02735,-7.61719 0,-5.90821 -3.27149,-8.30078 -3.22265,-2.44141 -12.01171,-2.44141 l -2.09961,0 0,20.50781 z m -0.73243,9.03321 0,31.98242 -10.88867,0 0,-71.48438 16.21094,0 q 7.12891,0 11.03516,0.92774 3.95507,0.92773 6.73828,3.07617 3.32031,2.58789 5.12695,6.68945 1.80664,4.10156 1.80664,8.98438 0,8.59375 -4.15039,13.47656 -4.15039,4.83398 -12.25586,5.81055 l 24.60938,32.51953 -13.13477,0 -23.7793,-31.98242 -1.31836,0 z"
         style="font-size:100px;letter-spacing:0px"
         id="path5152"
         inkscape:connector-curvature="0" />
      <path
         d="m 563.31217,495.46448 0,-71.48438 11.6211,0 0,71.48438 -11.6211,0 z"
         style="font-size:100px;letter-spacing:0px"
         id="path5154"
         inkscape:connector-curvature="0" />
      <path
         d="m 643.00553,441.36292 q -4.93164,-4.19922 -10.44922,-6.29883 -5.46875,-2.09961 -11.52343,-2.09961 -11.71875,0 -19.0918,7.51953 -7.32422,7.51953 -7.32422,19.48242 0,11.57227 7.12891,19.0918 7.17773,7.51953 18.0664,7.51953 6.34766,0 12.06055,-2.24609 5.76172,-2.2461 11.03516,-6.78711 l 0,13.13476 q -4.6875,3.36914 -10.20508,5.0293 -5.51758,1.66015 -11.96289,1.66015 -8.20313,0 -15.18555,-2.68554 -6.93359,-2.68555 -12.20703,-7.91016 -5.22461,-5.12695 -8.05664,-12.06055 -2.78321,-6.98242 -2.78321,-14.84375 0,-7.86132 2.78321,-14.74609 2.83203,-6.93359 8.15429,-12.1582 5.32227,-5.27344 12.20704,-7.95899 6.88476,-2.73437 14.89257,-2.73437 6.29883,0 12.01172,1.85547 5.71289,1.80664 11.08399,5.51758 l -0.63477,11.71875 z"
         style="font-size:100px;letter-spacing:0px"
         id="path5156"
         inkscape:connector-curvature="0" />
      <path
         d="m 670.59538,467.38831 19.92187,0 -7.32422,-16.3086 q -0.63476,-1.5625 -1.31836,-3.56445 -0.68359,-2.05078 -1.36719,-4.54102 -0.58593,2.34375 -1.26953,4.39453 -0.63476,2.00196 -1.31836,3.71094 l -7.32421,16.3086 z m 32.1289,28.07617 -8.10547,-18.40821 -28.32031,0 -8.30078,18.40821 -12.20703,0 34.61914,-74.31641 34.57031,74.31641 -12.25586,0 z"
         style="font-size:100px;letter-spacing:0px"
         id="path5158"
         inkscape:connector-curvature="0" />
    </g>
    <g
       id="g6278"
       transform="matrix(0.23382207,0,0,0.23382207,196.28087,394.18406)"
       style="fill:#5b417d;fill-opacity:1">
      <path
         id="path6280"
         d="m 431.778,187.681 c -0.138,-0.463 -0.26,-0.927 -0.398,-1.39 -1.65,-5.519 -3.577,-10.974 -5.723,-16.363 -0.252,-0.618 -0.48,-1.252 -0.74,-1.87 -2.138,-5.202 -4.536,-10.323 -7.137,-15.371 -0.382,-0.732 -0.74,-1.479 -1.13,-2.203 -0.853,-1.601 -1.748,-3.178 -2.642,-4.755 L 438.792,95.364 388.94,45.512 338.023,70.564 c -0.935,-0.52 -1.87,-1.024 -2.812,-1.528 -0.732,-0.39 -1.471,-0.748 -2.203,-1.13 -5.04,-2.601 -10.161,-4.999 -15.371,-7.137 -0.618,-0.252 -1.244,-0.488 -1.87,-0.74 -5.381,-2.146 -10.835,-4.072 -16.355,-5.723 -0.463,-0.138 -0.943,-0.26 -1.406,-0.398 -0.211,-0.065 -0.423,-0.122 -0.634,-0.179 L 279.082,0 208.583,0 190.497,53.128 c -0.935,0.26 -1.87,0.528 -2.804,0.797 -0.471,0.138 -0.943,0.26 -1.406,0.398 -5.519,1.65 -10.965,3.577 -16.355,5.723 -0.618,0.252 -1.252,0.48 -1.87,0.74 -5.21,2.138 -10.331,4.536 -15.371,7.137 -0.732,0.374 -1.471,0.74 -2.195,1.122 -0.943,0.504 -1.886,1.016 -2.821,1.528 L 96.758,45.52 46.906,95.373 71.69,145.738 c -0.894,1.577 -1.788,3.146 -2.642,4.747 -0.39,0.732 -0.756,1.479 -1.138,2.219 -2.601,5.04 -4.999,10.161 -7.129,15.363 -0.252,0.618 -0.488,1.244 -0.74,1.87 -2.146,5.389 -4.072,10.844 -5.723,16.363 -0.138,0.463 -0.26,0.927 -0.398,1.39 -0.276,0.935 -0.536,1.878 -0.797,2.821 l -53.12,18.086 0,70.499 53.73,18.289 c 0.065,0.219 0.122,0.439 0.187,0.65 0.13,0.463 0.252,0.927 0.39,1.382 1.65,5.519 3.577,10.974 5.723,16.363 0.252,0.618 0.48,1.252 0.74,1.87 2.138,5.202 4.536,10.323 7.137,15.371 0.382,0.732 0.74,1.479 1.13,2.211 0.853,1.601 1.748,3.178 2.642,4.747 l -24.784,50.365 49.853,49.853 50.917,-25.052 c 0.935,0.52 1.87,1.024 2.812,1.528 0.732,0.39 1.471,0.748 2.211,1.13 5.04,2.601 10.161,4.999 15.371,7.137 0.618,0.252 1.244,0.488 1.87,0.74 5.389,2.146 10.844,4.072 16.363,5.723 0.463,0.138 0.927,0.26 1.39,0.398 0.219,0.065 0.431,0.122 0.65,0.187 l 18.289,53.73 70.499,0 18.086,-53.12 c 0.943,-0.26 1.878,-0.528 2.821,-0.797 0.463,-0.138 0.927,-0.26 1.39,-0.398 5.519,-1.65 10.974,-3.577 16.363,-5.723 0.618,-0.252 1.252,-0.48 1.87,-0.74 5.202,-2.138 10.323,-4.528 15.363,-7.129 0.74,-0.382 1.488,-0.748 2.219,-1.138 0.943,-0.504 1.878,-1.008 2.812,-1.528 l 50.917,25.052 49.853,-49.853 -24.784,-50.365 c 0.894,-1.577 1.788,-3.154 2.642,-4.755 0.39,-0.723 0.748,-1.463 1.122,-2.195 2.601,-5.048 4.999,-10.169 7.137,-15.371 0.252,-0.618 0.488,-1.244 0.74,-1.87 2.146,-5.389 4.072,-10.844 5.723,-16.363 0.138,-0.455 0.26,-0.927 0.39,-1.382 0.276,-0.935 0.545,-1.878 0.805,-2.821 l 53.12,-18.086 0,-70.499 -53.73,-18.289 c -0.082,-0.237 -0.139,-0.456 -0.204,-0.667 z M 271.344,379.832 c -0.122,0.024 -0.236,0.065 -0.358,0.089 -3.894,0.797 -7.877,1.349 -11.876,1.821 -0.699,0.081 -1.382,0.236 -2.081,0.309 -4.666,0.471 -9.389,0.715 -14.176,0.715 -4.787,0 -9.51,-0.244 -14.176,-0.715 -0.699,-0.073 -1.382,-0.228 -2.081,-0.309 -3.999,-0.463 -7.982,-1.016 -11.876,-1.821 -0.122,-0.024 -0.244,-0.065 -0.374,-0.089 -54.315,-11.291 -97.185,-54.161 -108.476,-108.476 -0.024,-0.122 -0.065,-0.244 -0.089,-0.374 -0.797,-3.894 -1.349,-7.868 -1.821,-11.876 -0.081,-0.699 -0.236,-1.382 -0.309,-2.081 -0.471,-4.666 -0.715,-9.389 -0.715,-14.176 0,-4.787 0.244,-9.51 0.715,-14.176 0.073,-0.699 0.228,-1.382 0.309,-2.081 0.463,-4.007 1.016,-7.982 1.821,-11.876 0.024,-0.122 0.065,-0.236 0.089,-0.358 11.291,-54.356 54.201,-97.25 108.557,-108.508 0.098,-0.016 0.187,-0.049 0.285,-0.073 3.926,-0.805 7.942,-1.366 11.973,-1.829 0.667,-0.073 1.317,-0.228 1.983,-0.293 4.666,-0.471 9.397,-0.715 14.184,-0.715 4.788,0 9.519,0.244 14.184,0.715 0.667,0.065 1.317,0.219 1.983,0.293 4.04,0.463 8.047,1.024 11.973,1.829 0.098,0.016 0.187,0.049 0.284,0.073 54.364,11.266 97.267,54.161 108.557,108.508 0.024,0.122 0.065,0.236 0.089,0.358 0.797,3.894 1.349,7.877 1.821,11.876 0.081,0.699 0.236,1.382 0.309,2.081 0.471,4.666 0.715,9.389 0.715,14.176 0,4.788 -0.244,9.51 -0.715,14.176 -0.073,0.699 -0.228,1.382 -0.309,2.081 -0.463,3.999 -1.016,7.982 -1.821,11.876 -0.024,0.122 -0.065,0.244 -0.089,0.374 -11.287,54.323 -54.166,97.194 -108.489,108.476 z"
         style="fill:#5b417d;fill-opacity:1"
         inkscape:connector-curvature="0" />
      <circle
         id="circle6282"
         r="44.018925"
         cy="242.849"
         cx="242.853"
         style="fill:#5b417d;fill-opacity:1" />
    </g>
    <g
       id="g6284"
       transform="matrix(0.23382207,0,0,0.23382207,196.28087,394.18406)" />
    <g
       id="g6286"
       transform="matrix(0.23382207,0,0,0.23382207,196.28087,394.18406)" />
    <g
       id="g6288"
       transform="matrix(0.23382207,0,0,0.23382207,196.28087,394.18406)" />
    <g
       id="g6290"
       transform="matrix(0.23382207,0,0,0.23382207,196.28087,394.18406)" />
    <g
       id="g6292"
       transform="matrix(0.23382207,0,0,0.23382207,196.28087,394.18406)" />
    <g
       id="g6294"
       transform="matrix(0.23382207,0,0,0.23382207,196.28087,394.18406)" />
    <g
       id="g6296"
       transform="matrix(0.23382207,0,0,0.23382207,196.28087,394.18406)" />
    <g
       id="g6298"
       transform="matrix(0.23382207,0,0,0.23382207,196.28087,394.18406)" />
    <g
       id="g6300"
       transform="matrix(0.23382207,0,0,0.23382207,196.28087,394.18406)" />
    <g
       id="g6302"
       transform="matrix(0.23382207,0,0,0.23382207,196.28087,394.18406)" />
    <g
       id="g6304"
       transform="matrix(0.23382207,0,0,0.23382207,196.28087,394.18406)" />
    <g
       id="g6306"
       transform="matrix(0.23382207,0,0,0.23382207,196.28087,394.18406)" />
    <g
       id="g6308"
       transform="matrix(0.23382207,0,0,0.23382207,196.28087,394.18406)" />
    <g
       id="g6310"
       transform="matrix(0.23382207,0,0,0.23382207,196.28087,394.18406)" />
    <g
       id="g6312"
       transform="matrix(0.23382207,0,0,0.23382207,196.28087,394.18406)" />
  </g>
</svg>
